<?xml version="1.0" standalone="no"?><!DOCTYPE svg PUBLIC "-//W3C//DTD SVG 1.1//EN" "http://www.w3.org/Graphics/SVG/1.1/DTD/svg11.dtd"><svg t="1522049548701" class="icon" style="" viewBox="0 0 1024 1024" version="1.1" xmlns="http://www.w3.org/2000/svg" p-id="12090" xmlns:xlink="http://www.w3.org/1999/xlink" width="44" height="44"><defs><style type="text/css"></style></defs><path d="M258.944 561.792a50.624 50.624 0 1 0 0.128-101.248 50.624 50.624 0 0 0-0.128 101.248z m0 0M427.776 561.792a50.688 50.688 0 1 0-50.624-50.624 50.56 50.56 0 0 0 50.624 50.624z m0 0M596.544 561.792a50.56 50.56 0 1 0 0-101.248 50.56 50.56 0 0 0 0 101.248z m0 0" p-id="12091" fill="#ffffff"></path><path d="M782.208 241.152H73.344s-33.728 0-33.728 33.728v472.576c0 33.792 33.728 33.792 33.728 33.792h101.312v168.768l168.768-168.768h438.784s33.728 0 33.728-33.792V274.88c0-33.728-33.728-33.728-33.728-33.728z m-33.792 472.512H315.392l-19.776 19.84-53.504 53.504v-73.344h-135.04V308.608h641.344v405.056z m0 0" p-id="12092" fill="#ffffff"></path><path d="M950.976 72.32H242.112s-33.728 0-33.728 33.728V207.36H275.84V139.904h641.344v405.056h-67.52V612.48h101.312s33.728 0 33.728-33.728V106.112c0.064-33.792-33.728-33.792-33.728-33.792z m0 0" p-id="12093" fill="#ffffff"></path></svg>
