<?xml version="1.0" standalone="no"?><!DOCTYPE svg PUBLIC "-//W3C//DTD SVG 1.1//EN" "http://www.w3.org/Graphics/SVG/1.1/DTD/svg11.dtd"><svg t="1523238718872" class="icon" style="" viewBox="0 0 1024 1024" version="1.1" xmlns="http://www.w3.org/2000/svg" p-id="4215" xmlns:xlink="http://www.w3.org/1999/xlink" width="32" height="32"><defs><style type="text/css"></style></defs><path d="M527.520485 60.257385c-240.302995 0-435.106726 194.803731-435.106726 435.106726s194.803731 435.106726 435.106726 435.106726 435.106726-194.803731 435.106726-435.106726S767.82348 60.257385 527.520485 60.257385zM527.520485 843.449901c-192.242396 0-348.084767-155.843394-348.084767-348.08579s155.843394-348.084767 348.084767-348.084767 348.084767 155.843394 348.084767 348.084767S719.762881 843.449901 527.520485 843.449901z" p-id="4216" fill="#ffffff"></path><path d="M657.460929 596.422761l-87.020936 0 0-43.566238 89.209788 0c24.030299 0 43.51098-19.48068 43.51098-43.51098 0-24.030299-19.479657-43.51098-43.509956-43.51098l-89.211834 0 0 0 1.38351 0 103.301737-127.514185c18.87079-22.039969 24.49488-40.220027 23.794939-49.681516-0.669242-9.386788-6.697539-17.370623-18.061354-23.958668-11.80793-7.005554-22.946618-9.073656-33.385365-6.266727-10.438747 2.874467-98.892311 116.196419-98.892311 116.196419-14.06432 19.583011-28.939099 18.497283-46.111201 0.210801 0 0-83.753519-112.415302-94.192266-114.413819-10.474562-1.997494-21.13332 0.347924-32.04688 6.865361-9.070586 5.713119-14.549368 13.417591-16.361643 23.01211-1.814322 9.673313-0.186242 25.018813 13.430894 37.697577l110.155842 136.442532c-0.01535 0.469698-0.034792 0.937348-0.035816 1.410116l-84.832084 0c-24.030299 0-43.51098 19.48068-43.51098 43.51098 0 24.030299 19.48068 43.51098 43.51098 43.51098l84.831061 0 0 43.566238-87.020936 0c-24.030299 0-43.51098 19.48068-43.51098 43.51098 0 24.030299 19.48068 43.51098 43.51098 43.51098l87.020936 0 0 43.509956c0 24.030299 19.48068 43.51098 43.51098 43.51098s43.51098-19.48068 43.51098-43.51098l0-43.509956 87.020936 0c24.030299 0 43.51098-19.48068 43.51098-43.51098C700.971909 615.903441 681.492252 596.422761 657.460929 596.422761z" p-id="4217" fill="#ffffff"></path></svg>