<?xml version="1.0" encoding="UTF-8"?>
<svg width="16px" height="16px" viewBox="0 0 16 16" version="1.1" xmlns="http://www.w3.org/2000/svg" xmlns:xlink="http://www.w3.org/1999/xlink">
    <!-- Generator: Sketch 46.2 (44496) - http://www.bohemiancoding.com/sketch -->
    <title>减号 (2)</title>
    <desc>Created with Sketch.</desc>
    <defs></defs>
    <g id="__wesketch_export" stroke="none" stroke-width="1" fill="none" fill-rule="evenodd">
        <g id="减号-(2)" fill-rule="nonzero" fill="#999999">
            <g id="Shape">
                <path d="M8,0 C3.584,0 0,3.584 0,8 C0,12.416 3.584,16 8,16 C12.416,16 16,12.416 16,8 C16,3.584 12.416,0 8,0 Z M13.136,8 C13.136,8.48 12.752,8.864 12.272,8.864 L3.712,8.864 C3.232,8.864 2.848,8.48 2.848,8 L2.848,8 C2.848,7.52 3.232,7.136 3.712,7.136 L12.288,7.136 C12.752,7.136 13.136,7.52 13.136,8 L13.136,8 Z"></path>
            </g>
        </g>
    </g>
</svg>