<?xml version="1.0" standalone="no"?><!DOCTYPE svg PUBLIC "-//W3C//DTD SVG 1.1//EN" "http://www.w3.org/Graphics/SVG/1.1/DTD/svg11.dtd"><svg t="1522046795020" class="icon" style="" viewBox="0 0 1024 1024" version="1.1" xmlns="http://www.w3.org/2000/svg" p-id="2431" xmlns:xlink="http://www.w3.org/1999/xlink" width="32" height="32"><defs><style type="text/css"></style></defs><path d="M720.697671 66.861804 303.300282 66.861804c-44.090171 0-79.93761 35.846416-79.93761 79.93761l0 730.400149c0 44.091194 35.847439 79.938634 79.93761 79.938634L720.697671 957.138196c44.091194 0 79.938634-35.847439 79.938634-79.938634L800.636305 146.799414C800.636305 102.70822 764.788865 66.861804 720.697671 66.861804zM745.103524 877.199563c0 13.450337-10.955516 24.40483-24.405853 24.40483L303.300282 901.604392c-13.449313 0-24.40483-10.954493-24.40483-24.40483L278.895453 146.799414c0-13.450337 10.955516-24.40483 24.40483-24.40483L720.697671 122.394584c13.450337 0 24.405853 10.954493 24.405853 24.40483L745.103524 877.199563z" p-id="2432" fill="#ffffff"></path><path d="M512.013815 811.524794c-19.089777 0-34.546817 15.456017-34.546817 34.545794s15.456017 34.545794 34.546817 34.545794c19.062148 0 34.518165-15.456017 34.518165-34.545794S531.074939 811.524794 512.013815 811.524794z" p-id="2433" fill="#ffffff"></path><path d="M309.455469 774.591627 714.353173 774.591627 714.353173 169.956833 309.455469 169.956833 309.455469 774.591627zM360.434537 220.935901l302.94059 0L663.375128 723.613582 360.434537 723.613582 360.434537 220.935901z" p-id="2434" fill="#ffffff"></path></svg>
