<?xml version="1.0" standalone="no"?><!DOCTYPE svg PUBLIC "-//W3C//DTD SVG 1.1//EN" "http://www.w3.org/Graphics/SVG/1.1/DTD/svg11.dtd"><svg t="1522049866905" class="icon" style="" viewBox="0 0 1024 1024" version="1.1" xmlns="http://www.w3.org/2000/svg" p-id="2786" xmlns:xlink="http://www.w3.org/1999/xlink" width="44" height="44"><defs><style type="text/css"></style></defs><path d="M288.393781 466.565205c0 12.593829 9.975189 22.834055 22.323425 22.834055l395.080104 0c12.389168 0 22.366404-10.240225 22.366404-22.834055l0-22.812565c0-12.614296-9.977235-22.837124-22.366404-22.837124L310.717206 420.915515c-12.348236 0-22.323425 10.222829-22.323425 22.837124L288.393781 466.565205zM310.717206 321.972039l395.080104 0c12.389168 0 22.366404-10.201339 22.366404-22.812565l0-22.815635c0-12.611226-9.977235-22.834055-22.366404-22.834055L310.717206 253.509784c-12.348236 0-22.323425 10.222829-22.323425 22.834055l0 22.815635C288.393781 311.770699 298.36897 321.972039 310.717206 321.972039zM288.393781 633.971959c0 12.590759 9.975189 22.816658 22.323425 22.816658l323.491649 0c12.345166 0 22.405289-10.225899 22.405289-22.816658l0-22.837124c0-12.611226-10.0591-22.830985-22.405289-22.830985L310.717206 588.30385c-12.348236 0-22.323425 10.218736-22.323425 22.830985L288.393781 633.971959zM869.791337 63.264882 154.205593 63.264882c-16.4783 0-29.846772 13.637602-29.846772 30.439266l0 836.611146c0 16.800641 13.368472 30.4188 29.846772 30.4188l377.090381 0 0-76.030627L223.876372 884.703467c-13.820774 0-24.942065-11.446703-24.942065-25.533536L198.934307 164.908864c0-14.105253 11.121292-25.533536 24.942065-25.533536l576.24521 0c13.779841 0 24.942065 11.428284 24.942065 25.533536l0 536.564465L657.841088 701.473329c-16.479323 0-16.766872 3.149736-16.766872 19.932981L641.074216 960.734094l83.980693 0 174.420495-179.492 0.162706 0L899.638109 93.705172C899.639133 76.903507 886.267591 63.264882 869.791337 63.264882zM698.481693 870.986047l0-59.813271c0-14.104229 15.207353-33.692357 29.028127-33.692357l72.325235 0L698.481693 870.986047z" p-id="2787" fill="#ffffff"></path></svg>
